<?xml version="1.0" encoding="UTF-8"?>
<!DOCTYPE svg PUBLIC "-//W3C//DTD SVG 1.1//EN" "http://www.w3.org/Graphics/SVG/1.1/DTD/svg11.dtd">
<!-- Creator: CorelDRAW -->
<svg xmlns="http://www.w3.org/2000/svg" xml:space="preserve" width="8in" height="8in" version="1.1" style="shape-rendering:geometricPrecision; text-rendering:geometricPrecision; image-rendering:optimizeQuality; fill-rule:evenodd; clip-rule:evenodd"
viewBox="0 0 8000 8000"
 xmlns:xlink="http://www.w3.org/1999/xlink"
 xmlns:xodm="http://www.corel.com/coreldraw/odm/2003">
 <defs>
  <style type="text/css">
   <![CDATA[
    .fil0 {fill:#FEFEFE}
    .fil2 {fill:#FEFEFE}
    .fil3 {fill:#373435}
    .fil1 {fill:#373435;fill-rule:nonzero}
   ]]>
  </style>
 </defs>
 <g id="Layer_x0020_1">
  <metadata id="CorelCorpID_0Corel-Layer"/>
  <g id="_2412548163552">
   <path class="fil0" d="M6567.92 1357.71c-1399.94,-1400.39 -3670.35,-1400.39 -5070.46,0 -1400.08,1400.24 -1400.08,3670.66 0,5070.9 1400.11,1400.39 3670.52,1400.39 5070.46,0 1401.41,-1400.24 1401.41,-3670.66 0,-5070.9z"/>
   <path class="fil1" d="M4032.61 367.35c-903,0 -1805.99,343.76 -2494.09,1031.43 -1375.49,1375.46 -1375.49,3613.46 0,4988.79 1375.32,1375.48 3613.32,1375.48 4989.83,0 1375.02,-1375.32 1375.02,-3613.33 0,-4988.79 -688.99,-687.66 -1592.01,-1031.43 -2495.74,-1031.43zm0 7168.04c-932.61,0 -1865.81,-355.2 -2576.19,-1065.57 -1420.47,-1420.78 -1420.47,-3732.52 0,-5153.14 1420.61,-1420.78 3732.08,-1420.78 5152.56,0 1421.94,1420.61 1421.94,3732.36 0,5153.14 -709.52,710.37 -1643.29,1065.57 -2576.37,1065.57z"/>
   <path class="fil2" d="M7412.28 3893.17c0,-1861.58 -1517.21,-3379.81 -3379.67,-3379.81 -1860.97,0 -3379.07,1518.24 -3379.07,3379.81 0,1861.57 1518.09,3379.81 3379.07,3379.81 1862.46,0 3379.67,-1518.24 3379.67,-3379.81z"/>
   <path class="fil1" d="M1973.16 1493.32l136.91 136.47 -10.56 10.56c-50.13,-24.48 -97.62,-33.57 -142.78,-27.27 -45.15,6.16 -82.83,24.62 -113.17,54.96 -28.74,29.04 -45.15,61.43 -47.5,97.04 -3.37,35.64 6.44,71.98 27.85,109.22 21.25,37.08 46.75,71.09 77.84,101.74 37.82,37.08 74.77,65.24 111.55,84.44 36.94,19.04 71.4,25.5 104.22,18.9 32.71,-6.44 62.31,-23.15 89.28,-50.12 9.09,-9.39 18.18,-20.09 25.53,-31.97 8.2,-11.72 15.53,-24.78 21.39,-38.99l-80.49 -80.49c-15.53,-15.09 -26.22,-24.04 -32.83,-26.39 -7.32,-2.35 -15.53,-2.04 -25.37,1.02 -10.69,2.95 -20.5,9.09 -29.46,18.48l-9.97 9.97 -10.56 -10.42 187.78 -189.39 10.72 10.7c-13.2,15.25 -21.41,27.27 -23.9,35.76 -2.49,8.65 -1.63,17.9 1.74,27.85 2.35,5.28 9.83,14.95 24.64,29.04l81.07 80.46c-13.93,36.06 -31.09,70.24 -52.5,102.76 -21.25,32.55 -45.87,63.19 -74.61,92.2 -36.94,36.94 -72.12,62.61 -106.57,76.98 -34.46,14.37 -68.91,22.85 -104.22,25.2 -34.46,2.49 -67.28,-1.32 -98.37,-11.13 -40.17,-12.76 -76.23,-35.48 -109.06,-68.17 -58.35,-58.19 -87.81,-127.99 -86.93,-209.33 0.72,-81.35 31.94,-153.19 93.37,-215.64 19.81,-19.34 38.71,-35.17 56.75,-47.64 9.81,-6.91 27.85,-16.13 54.08,-27.85 26.25,-11.74 40.17,-19.34 44.27,-22.88 4.83,-5.28 8.2,-12.3 8.95,-20.67 0,-8.65 -3.23,-20.22 -9.81,-34.9l10.7 -10.53z"/>
   <path class="fil1" d="M2835.12 1366.5l79.61 176.51 -419.11 247.74 -8.21 -12.9 15.53 -9.23c14.07,-8.07 23.9,-17.02 29.62,-26.83 4.09,-6.74 4.84,-15.09 3.21,-25.06 0,-7.04 -7.32,-22.44 -21.25,-46.17l-183.83 -311.07c-14.65,-24.04 -24.48,-38.41 -31.06,-42.96 -5.72,-4.54 -13.93,-6.88 -24.64,-6.74 -10.7,0 -22.13,4.11 -35.31,11.88l-15.56 9.23 -8.21 -12.9 252.58 -148.93 7.49 12.9 -20.53 12.16c-13.93,8.23 -23.74,17.16 -28.73,26.99 -4.09,6.74 -5.72,15.09 -4.98,25.2 0.88,7.04 8.2,22.43 22.27,46.17l177.97 301.26c14.65,24.18 24.62,38.85 31.08,43.69 7.46,4.98 15.53,6.74 25.5,5.28 7.32,-1.46 22.13,-8.65 44.27,-21.85l39.29 -23.3c24.62,-14.81 43.52,-31.53 54.96,-50.29 11.44,-18.76 18.04,-41.2 18.93,-67.45 0.86,-26.22 -4.11,-61.26 -15.56,-104.94l14.67 -8.37z"/>
   <path class="fil1" d="M3186.2 885.83c-48.38,13.65 -78.72,48.82 -89.42,105.27 -9.09,46.31 -3.23,107.43 18.9,183.39 25.37,90 59.82,152.14 104.09,186.31 30.34,23.88 65.68,30.18 105.11,18.9 26.97,-7.63 47.5,-20.39 61.42,-38.41 18.02,-23.16 28.71,-54.68 31.22,-95 2.33,-39.87 -5,-89.28 -21.41,-148.05 -19.64,-69.93 -40.89,-120.22 -63.91,-151.28 -23.02,-31.09 -46.76,-50.87 -70.52,-59.38 -24.62,-8.51 -49.24,-9.09 -75.49,-1.77zm-12.32 -23.6c83.72,-26.97 159.05,-21.69 226.35,15.56 67.28,37.22 112.43,95.13 134.56,173.55 18.9,67 15.53,131.64 -9.09,193.64 -32.83,82.26 -96.76,136.78 -191.01,163.61 -95.14,26.97 -177.95,15.69 -247.74,-34.02 -55.84,-39.29 -93.53,-93.95 -113.15,-163.74 -22.15,-78.56 -13.93,-151.42 24.62,-219 38.55,-67.28 96.74,-110.53 175.46,-129.59z"/>
   <path class="fil1" d="M4286.07 746.15l0 14.95c-19.65,3.65 -37.66,14.51 -53.35,32.83 -10.7,13.79 -26.97,45.73 -49.24,96.02l-182.09 422.62 -13.04 0.14 -195.24 -433.31c-23.76,-52.19 -39.29,-82.98 -47.5,-92.07 -7.48,-9.09 -22.13,-14.51 -43.54,-16.69l0 -14.97 263.27 -4.23 0 14.95 -8.93 0.14c-23.9,0.44 -40.17,3.67 -48.38,9.67 -6.6,4.12 -9.09,10.11 -9.09,18.04l3.23 17.13c2.49,6.6 9.81,24.2 23.02,52.78l121.36 271.5 104.97 -245.11c12.32,-29.6 19.65,-49.41 22.13,-59.52 3.37,-10.11 5,-18.6 4.12,-25.5 0,-8.21 -2.35,-15.25 -6.61,-21.39 -3.95,-6.16 -10.56,-10.86 -18.76,-13.93 -12.32,-4.26 -27.13,-6.3 -46.76,-6.16l0 -14.95 180.44 -2.93z"/>
   <path class="fil1" d="M4678.35 1361.97l-1.46 14.67 -282.62 -55.7 3.37 -14.67 18.02 3.37c15.56,3.23 28.74,2.93 39.29,-0.74 7.49,-2.33 14.07,-7.6 19.78,-15.97 3.95,-5.72 8.95,-22.13 13.93,-49.1l70.51 -354.31c5.72,-27.55 7.32,-45.01 5.72,-52.61 -1.6,-7.35 -6.6,-14.53 -13.93,-21.41 -8.21,-7.04 -19.65,-12.02 -34.46,-14.95l-18.02 -3.67 3.21 -14.65 280.73 55.84 -2.93 14.81 -17.6 -3.67c-14.65,-3.07 -27.85,-2.63 -38.1,0.88 -8.79,2.35 -14.67,7.63 -20.53,15.83 -4.39,5.86 -10.25,22.27 -14.65,49.26l-70.37 354.3c-5.86,27.57 -7.49,45.15 -5.86,52.5 1.47,7.46 7.33,14.65 14.65,21.69 7.35,6.88 19.06,11.88 35.2,14.81l16.11 3.51z"/>
   <path class="fil1" d="M5339.49 1017.32l-64.49 171.81 -14.67 -6.16c8.79,-45.59 4.39,-86.93 -13.18,-124.31 -17.6,-37.22 -43.99,-62.28 -76.23,-75.49 -26.39,-10.11 -48.38,-11.44 -68.91,-3.65 -20.51,7.91 -33.71,20.67 -41.04,38.41 -5.86,11.42 -5.86,22.41 -4.39,33.27 1.46,14.65 8.79,30.92 20.53,48.8 8.79,13.07 29.32,38.57 64.49,76.54 48.38,52.92 77.7,96.74 87.95,131.06 10.25,34.29 8.79,68.31 -4.39,101.88 -17.6,42.66 -48.38,72.7 -93.83,90.3 -45.43,17.6 -93.81,16.13 -145.12,-3.95 -16.11,-6.46 -29.31,-14.09 -42.5,-23.02 -13.21,-8.95 -29.32,-22.3 -46.92,-39.87 -10.26,-9.83 -19.07,-16.27 -27.85,-19.37 -5.86,-2.63 -13.18,-2.76 -23.46,-0.58 -8.79,2.21 -17.58,7.48 -26.39,15.83l-13.18 -5.42 76.23 -192.78 13.19 5.44c-10.26,58.63 -5.86,108.48 14.67,149.51 20.5,40.9 48.36,68.61 85.02,82.98 27.85,11.14 54.24,12.46 76.21,3.67 21.99,-8.65 38.13,-23.18 46.92,-43.41 4.39,-12.16 5.86,-25.06 4.39,-38.85 -2.93,-13.93 -8.79,-28.44 -17.58,-43.83 -8.81,-15.39 -26.39,-37.83 -52.77,-67.14 -38.13,-41.2 -63.06,-73.89 -77.7,-98.07 -13.2,-24.18 -21.99,-48.22 -24.92,-72.42 -2.93,-24.04 0,-48.08 8.79,-71.98 16.13,-40.59 45.45,-69.33 86.48,-86.19 41.06,-16.72 85.02,-16.13 130.48,1.91 16.13,6.6 30.78,14.95 45.45,25.2 10.25,7.63 21.97,18.93 36.64,33.71 13.19,14.97 23.46,23.76 30.78,26.39l17.6 0.17c5.86,-2.65 13.18,-10.86 22,-24.93l11.72 4.54z"/>
   <path class="fil1" d="M6006.48 1437.46l-83.56 122.71 -13.2 -8.21c13.2,-33.13 19.07,-58.93 17.6,-77.26 0,-18.18 -4.4,-36.36 -14.65,-54.1 -5.88,-9.81 -19.06,-22 -41.06,-36.36l-32.25 -23.16 -240.42 349.62c-14.65,23.15 -24.93,38.57 -24.93,46.03 -1.46,7.63 0,15.97 4.42,25.5 4.39,9.53 13.18,18.62 26.37,27.57l14.67 10.25 -8.79 12.32 -237.49 -162.44 8.79 -12.3 14.67 10.39c13.18,8.81 26.39,13.79 36.64,14.67 8.81,0.88 16.13,-1.46 24.92,-6.74 5.86,-3.67 17.6,-16.85 32.25,-39.59l240.42 -349.46 -33.71 -22.43c-30.78,-20.97 -57.17,-29.62 -80.63,-26.25 -30.78,4.83 -61.56,22.13 -89.42,52.06l-11.74 -8.65 83.56 -122.55 407.53 278.36z"/>
   <path class="fil1" d="M6091.5 2028.96l83.56 -188.37 -194.96 66.7 111.41 121.66zm-11.72 30.48l-131.94 -142.19 -55.7 19.37c-17.6,6.58 -30.78,13.76 -39.59,21.69 -10.25,10.56 -14.65,22.71 -11.72,36.78 1.46,8.37 11.72,23.76 29.32,46.2l-11.72 10.11 -123.15 -133.84 10.28 -10.25c16.11,12.46 33.71,18.76 51.29,19.04 19.07,0.16 49.85,-7.02 92.37,-21.99l455.89 -153.77 4.39 5.72 -194.96 451.36c-19.04,42.8 -27.85,72.42 -27.85,88.83 0,12.46 5.86,25.22 16.13,38.41l-11.74 10.25 -180.3 -194.8 10.25 -10.28 7.35 8.07c16.11,15.69 27.85,24.62 38.11,26.97l20.53 -6.16 8.79 -12.02c1.46,-2.04 5.86,-11.85 13.18,-29.46l30.8 -68.02z"/>
   <polygon class="fil1" points="1609.75,5676.02 1853.38,5493.96 1785.38,5402.91 1818.07,5378.57 1982.25,5597.44 1949.4,5621.78 1881.23,5530.46 1637.74,5712.66 "/>
   <path class="fil1" d="M1746.81 5850.32l254.2 -232.65 28.74 31.22 -91.93 83.56c30.34,-1.02 55.87,9.83 76.37,31.97 12.32,13.62 20.53,27.99 24.65,42.94 3.21,14.95 2.33,29.04 -2.51,42.08 -5.72,12.91 -17.3,27.72 -36.06,44.27l-116.52 106.88 -28.74 -31.22 117.27 -107.02c15.69,-14.23 23.9,-28.02 24.62,-41.34 0.88,-13.2 -4.09,-25.94 -15.53,-38.41 -8.2,-9.25 -18.9,-15.69 -31.22,-19.51 -12.32,-3.81 -23.76,-3.67 -35.17,0.44 -11.6,3.95 -24.65,12.6 -39.46,25.94l-100.85 92.2 -27.85 -31.36z"/>
   <path class="fil1" d="M2088.82 5991.63l104.95 92.51c12.32,-16.88 18.93,-32.27 18.93,-45.89 0.72,-21.25 -6.61,-38.99 -23.02,-53.22 -14.81,-12.9 -31.22,-18.9 -49.26,-17.88 -18.76,1.02 -36.06,9.09 -51.59,24.48zm59.08 143.38l28.73 33.13c-22.15,14.65 -44.43,20.95 -68.17,19.18 -22.88,-1.89 -45.89,-12.44 -67.3,-31.64 -26.97,-24.2 -41.78,-51.92 -42.64,-82.84 -1.63,-31.22 11.58,-61.7 38.55,-92.2 27.99,-31.53 57.47,-48.66 89.42,-51.75 31.22,-2.93 59.96,6.91 86.21,29.76 24.48,22.3 37.66,48.82 38.54,79.91 0.72,31.06 -12.32,62 -40.17,92.93l-7.46 8.21 -139.43 -123.57c-17.13,21.56 -25.34,42.5 -24.62,62.75 0.88,20.06 9.09,37.08 24.62,51.01 11.44,10.25 24.64,15.97 37.69,17.16 14.07,1.16 28.74,-2.79 46.04,-12.02z"/>
   <path class="fil1" d="M2565.38 6366.03l21.25 -34.6 125.5 75.49 -66.43 109.36c-28.71,3.79 -55.84,3.37 -80.33,-1.32 -25.5,-4.56 -48.38,-13.35 -69.77,-26.39 -29.48,-17.46 -51.61,-39.59 -68.17,-66.4 -16.28,-26.69 -22.88,-55.43 -21.25,-86.21 2.49,-30.78 12.3,-60.84 29.6,-89.72 18.04,-28.74 40.17,-51.89 67.14,-69.47 27.13,-17.74 54.98,-25.67 85.32,-24.2 29.6,1.63 59.08,11.3 88.67,29.04 21.27,12.88 38.57,27.99 51.61,45.43 13.04,17.3 20.53,35.04 23.02,53.22 2.35,18.46 0,38.99 -6.6,61.87l-41.04 -11.58c4.09,-17.74 5.7,-32.85 4.98,-45.45 -1.61,-12.6 -6.6,-25.06 -15.69,-37.66 -9.81,-12.46 -21.25,-23.32 -36.06,-32.27 -18.02,-10.83 -35.18,-17.44 -51.59,-19.93 -16.41,-2.35 -31.22,-1.6 -44.27,2.49 -13.2,3.95 -25.53,9.98 -36.22,17.88 -18.76,13.65 -34.46,31.22 -47.5,52.5 -15.53,26.39 -24.62,51.15 -26.22,74.3 -1.63,23.18 4.09,44.29 15.53,63.33 12.32,19.2 27.85,34.45 47.64,46.33 17.16,10.11 35.17,16.85 55.7,20.22 19.65,3.07 36.06,3.68 49.26,1.33l32.83 -54.98 -86.93 -52.61z"/>
   <polygon class="fil1" points="2720.34,6603.94 2869.57,6293.03 2908.12,6311.35 2758.89,6622.26 "/>
   <path class="fil1" d="M2929.51 6562.6c-12.3,29.76 -13.93,54.54 -6.58,74.46 6.58,19.78 20.5,33.71 40.15,41.34 19.65,7.63 38.57,6.46 57.47,-3.37 18.76,-9.81 34.45,-30.04 45.87,-60.54 11.6,-28.87 13.2,-53.22 5.72,-73.14 -7.33,-19.95 -20.51,-33.71 -40.15,-41.2 -19.65,-7.76 -38.57,-6.6 -57.33,3.07 -18.9,9.67 -33.71,29.48 -45.15,59.38zm-41.04 -15.97c16.41,-42.96 41.04,-70.38 73,-81.81 26.97,-9.37 54.96,-8.65 83.7,2.65 31.97,12.46 54.1,33.13 66.4,62.01 11.44,28.87 10.72,61.72 -3.21,98.81 -12.32,29.9 -25.5,51.73 -41.06,65.38 -15.67,13.78 -34.43,21.99 -54.96,24.76 -21.41,2.95 -41.92,0.3 -61.56,-7.6 -32.69,-12.63 -54.98,-33.3 -67.28,-62.03 -12.32,-28.71 -10.56,-62.72 4.98,-102.15z"/>
   <path class="fil1" d="M3205.85 6792.91l-12.32 -260.95 42.66 10.86 2.49 149.52 1.63 55.57c0.86,-2.35 9.81,-17.88 25.5,-46.62l73.72 -132.07 42.66 10.69 0.89 149.68 0 49.41 25.36 -43.24 77.09 -129.45 40.17 10.25 -136.91 222.82 -42.66 -10.83 -1.6 -154.81 0.72 -43.52 -95.88 173.69 -43.52 -10.97z"/>
   <path class="fil1" d="M3820.95 6901.08l9.09 -145.72 -119.78 -206.82 54.98 3.51 61.57 108.04c11.44,20.23 21.25,40.45 31.08,60.54 11.41,-17.44 25.5,-36.8 41.04,-58.5l73.74 -96.9 52.61 3.37 -150.1 189.55 -9.09 145.86 -45.15 -2.93z"/>
   <path class="fil1" d="M4067.95 6784.84c0.74,31.94 8.95,55.7 23.76,71.09 13.93,15.53 31.94,22.72 53.19,22 21.41,-0.74 37.83,-9.26 51.76,-25.81 13.2,-16.41 19.64,-41.06 18.04,-73.89 -0.88,-30.78 -8.95,-53.94 -23.02,-69.33 -14.67,-15.39 -32.69,-22.74 -53.22,-21.99 -21.41,0.58 -38.55,9.09 -51.76,25.5 -13.93,16.28 -19.64,40.45 -18.76,72.42zm-43.55 1.46c-1.6,-46.17 9.83,-80.77 35.2,-104.09 20.5,-19.2 46.89,-29.31 77.26,-30.48 34.29,-1.19 63.03,9.09 85.16,30.78 23.02,21.83 34.46,52.47 36.2,92.04 0.74,32.27 -2.49,57.61 -11.58,76.37 -8.93,18.78 -22.85,33.57 -40.9,44.43 -18.04,10.85 -37.82,16.72 -59.96,17.44 -34.46,1.19 -63.17,-9.09 -85.33,-30.78 -22.85,-21.55 -34.43,-53.5 -36.06,-95.72z"/>
   <path class="fil1" d="M4526.35 6870.3l-5 -36.36c-15.53,30.64 -39.29,48.38 -73,53.08 -13.93,2.04 -28.57,1.16 -41.78,-2.65 -13.04,-3.67 -23.74,-9.53 -31.06,-16.99 -7.49,-7.63 -13.2,-17.3 -17.32,-29.32 -3.21,-7.93 -5.69,-20.83 -8.2,-38.71l-22.13 -153.19 42.66 -6.02 18.93 137.21c3.21,21.85 6.58,36.5 8.93,43.83 4.11,10.72 11.57,18.62 20.53,23.62 9.81,4.97 20.53,6.74 32.83,4.97 13.2,-1.91 24.65,-6.74 34.46,-14.67 9.81,-8.04 16.41,-18.02 19.65,-29.74 2.49,-11.74 2.49,-28.15 0,-49.26l-18.76 -132.52 41.78 -6.02 35.18 247.46 -37.67 5.28z"/>
   <path class="fil1" d="M4886.52 6746.71l70.35 -23.15c21.99,-7.19 36.66,-14.81 48.38,-22.85 10.25,-8.07 19.06,-17.02 23.46,-26.69 7.32,-13.79 10.25,-30.2 10.25,-49.41 0,-19.34 -4.39,-41.34 -11.72,-65.96 -11.74,-34.15 -26.39,-58.63 -42.52,-73.44 -17.57,-14.51 -36.64,-22.3 -54.24,-23.16 -13.18,-0.74 -32.24,3.21 -58.63,11.86l-68.89 22.74 83.56 250.07zm-30.78 53.08l-108.48 -327.49 112.87 -37.38c24.92,-8.35 45.43,-13.18 60.1,-14.65 19.06,-1.76 38.11,0.72 55.7,7.61 22,8.81 41.04,23.18 57.17,43.1 16.13,19.78 29.32,44.43 38.11,73.44 8.81,24.92 13.2,47.94 13.2,69.05 1.46,21.11 -1.46,39.43 -5.86,55.13 -4.42,15.53 -11.74,28.74 -20.53,39.57 -7.33,10.7 -19.07,20.67 -32.25,29.32 -14.67,8.79 -32.25,16.41 -51.31,23.02l-118.73 39.29z"/>
   <path class="fil1" d="M5195.83 6517.01l126.06 -59.52c-10.26,-18.18 -21.97,-30.2 -33.71,-35.92 -20.53,-9.09 -39.57,-8.93 -58.63,0.3 -17.6,8.21 -29.32,21.11 -36.64,38.55 -5.88,17.46 -5.88,36.36 2.93,56.59zm155.37 2.49l41.06 -13.76c4.39,25.95 1.46,49.54 -8.79,70.21 -10.28,20.67 -29.34,37.22 -55.7,49.69 -32.27,15.69 -64.52,17.88 -92.37,6.6 -29.32,-11.14 -52.78,-35.04 -70.35,-71.84 -17.6,-37.97 -22,-72.12 -11.74,-102.32 8.81,-30.34 29.32,-52.78 60.1,-67.56 30.8,-14.23 60.12,-15.69 89.44,-4.11 29.32,11.57 51.29,35.92 68.89,73.14l5.86 10.42 -168.58 79.61c13.21,24.04 27.85,39.73 46.92,47.06 19.07,7.19 38.11,6.3 57.17,-2.65 13.19,-6.58 24.93,-15.97 30.78,-27.99 5.86,-12.02 8.79,-27.55 7.32,-46.48z"/>
   <path class="fil1" d="M5461.15 6469.07l32.25 -27.27c10.28,13.07 23.46,20.83 36.66,22.88 14.65,2.04 29.32,-1.77 45.43,-11.72 17.6,-10.11 27.85,-20.97 30.81,-32.55 4.39,-11.74 2.93,-22.13 -1.49,-31.22 -4.39,-8.2 -13.19,-12.46 -23.44,-12.9 -5.88,-0.14 -20.53,3.07 -43.99,10.11 -30.78,9.23 -52.78,14.5 -65.96,15.83 -13.2,1.16 -24.92,-0.74 -35.2,-6.16 -10.26,-5.56 -19.04,-13.48 -24.9,-24.04 -5.88,-9.53 -8.81,-19.65 -10.28,-30.34 0,-10.7 1.46,-21.11 5.86,-31.09 2.93,-7.46 8.81,-15.67 16.13,-24.48 8.79,-8.65 19.07,-16.41 29.32,-23.16 17.6,-10.11 33.71,-16.55 49.85,-19.5 14.65,-2.63 27.85,-1.74 38.1,2.79 11.74,4.56 23.46,13.2 33.71,25.5l-33.71 26.39c-7.32,-10.11 -17.57,-15.83 -29.31,-17.44 -11.72,-1.46 -23.46,2.05 -38.11,10.42 -16.13,10.11 -26.39,20.06 -30.78,29.9 -4.42,9.67 -2.93,18.32 1.46,25.64l11.72 10.11c5.86,2.07 11.74,2.51 20.53,1.33 2.93,-1.02 16.11,-4.39 36.64,-10.11 30.78,-8.65 51.31,-13.79 64.49,-15.53 11.74,-1.77 24.93,-0.16 35.2,4.67 10.25,4.86 20.5,13.51 27.85,25.81 7.32,12.02 10.26,25.5 8.79,40.45 0,14.97 -5.86,29.34 -14.65,43.27 -10.28,13.93 -23.46,25.78 -39.59,35.9 -27.85,16.85 -52.77,23.76 -74.77,20.97 -21.97,-2.79 -41.04,-14.23 -58.63,-34.45z"/>
   <path class="fil1" d="M5697.17 6231.3l111.41 -83.56c-14.67,-15.69 -27.85,-25.06 -41.06,-28.15 -20.51,-5.11 -39.57,-1.17 -57.17,11.74 -14.65,11.72 -24.93,26.67 -26.39,45.01 -2.93,18.46 1.46,36.78 13.2,54.96zm152.44 -28.43l38.13 -21.99c10.25,24.62 11.72,48.22 4.39,70.81 -5.86,22.41 -20.53,42.36 -43.99,59.66 -29.31,22 -60.1,30.34 -89.42,25.06 -30.78,-5.14 -58.63,-24.04 -83.56,-56.59 -24.92,-33.57 -35.18,-66.12 -32.25,-97.62 4.39,-31.67 19.07,-57.75 46.92,-78.44 26.37,-20.06 55.7,-27.25 85.02,-21.83 30.78,5.58 58.63,24.93 83.56,57.91l5.86 9.23 -148.07 111.55c17.6,21.11 36.66,33.13 55.7,36.5 20.53,3.37 38.13,-1.32 55.73,-13.79 11.72,-9.23 20.5,-20.5 23.43,-33.55 4.42,-13.07 4.42,-28.74 -1.46,-46.92z"/>
   <path class="fil1" d="M6009.41 6174.71l-167.11 -186.32 29.32 -25.5 24.92 28.43c-4.39,-19.78 -5.86,-34.43 -2.93,-44.13 2.93,-9.67 5.86,-17.88 13.18,-24.32 11.74,-9.67 24.93,-15.97 42.52,-18.93l16.11 39.01c-13.18,2.33 -21.97,7.02 -29.31,13.93 -7.32,6 -11.72,13.76 -13.19,22.71 -2.93,9.09 -1.46,18.32 2.93,27.85 7.32,14.37 16.13,28.15 27.85,41.48l87.95 97.65 -32.25 28.13z"/>
   <path class="fil1" d="M6208.77 5984.58l-244.81 -103.48 29.32 -32.41 146.61 64.35c14.65,6.91 30.78,14.53 46.89,23.18 -7.32,-11.88 -14.65,-26.69 -23.43,-44.29l-71.84 -145.26 30.78 -31.52 114.34 240.7 -27.85 28.74z"/>
   <path class="fil1" d="M6260.08 5704.59l86.48 -110.09c-17.57,-11.44 -33.71,-16.85 -48.38,-16.41 -20.5,0.72 -38.1,9.53 -51.29,26.39 -11.74,15.39 -16.13,32.24 -14.67,50.7 2.93,18.48 11.72,35.04 27.85,49.41zm139.26 -67.56l30.78 -31.25c16.13,21.11 24.92,43.41 24.92,66.87 -1.46,23.3 -10.25,46.45 -27.85,69.33 -22,28.88 -48.38,44.87 -80.63,47.94 -30.78,3.07 -61.56,-7.93 -93.81,-32.83 -33.71,-25.81 -52.77,-54.41 -57.17,-85.63 -4.39,-31.5 2.93,-60.68 23.46,-87.95 20.5,-26.39 46.89,-41.04 77.67,-43.69 30.78,-2.79 63.05,8.51 95.3,33.87l8.79 7.19 -114.34 147.03c22,15.67 43.99,22.41 64.49,20.37 19.07,-2.05 35.2,-11.28 48.38,-27.85 10.25,-12.16 14.67,-25.2 14.67,-38.85 0,-13.76 -4.42,-28.57 -14.67,-44.54z"/>
   <path class="fil0" d="M5547.64 2378.44c-837.04,-836.59 -2192.41,-836.59 -3029.89,0 -836.6,836.59 -836.6,2193.02 0,3029.75 837.48,836.6 2192.85,836.6 3029.89,0 837.06,-836.73 837.06,-2193.15 0,-3029.75z"/>
   <path class="fil1" d="M5547.64 2378.44l29.31 -29.04c-426.57,-426.13 -984.94,-639.42 -1544.34,-639.42 -558.51,0 -1117.03,213.28 -1543.6,639.42 -426.44,426.16 -639.72,985.25 -639.72,1543.9 0,558.51 213.29,1117.63 639.72,1543.9 426.57,426.16 985.09,639.44 1543.6,639.44 559.4,0 1117.77,-213.29 1544.34,-639.44 425.13,-426.27 639.14,-985.39 639.14,-1543.9 0,-558.65 -214.01,-1117.74 -639.14,-1543.9l-29.31 29.04 -29.32 29.02c410.46,410.46 615.7,947.86 615.7,1485.85 0,538.01 -205.24,1075.41 -615.7,1485.87 -408.97,410.3 -947.7,615.38 -1485.71,615.38 -537.24,0 -1075.25,-205.08 -1485.24,-615.38 -410.91,-410.46 -615.98,-947.87 -615.98,-1485.87 0,-537.98 205.08,-1075.39 615.98,-1485.85 410,-410.46 948,-615.38 1485.24,-615.54 538.01,0.16 1076.74,205.08 1485.71,615.54l29.32 -29.02z"/>
   <path class="fil3" d="M1372.87 3969.54l0 0zm0 0l182.06 -78.42 -181.34 -75.93c-50.87,-21.11 -90.14,-61.14 -111.55,-111.71l-76.23 -181.62 -77.98 182.5c-21.25,49.41 -61.43,88.97 -110.69,109.94l-184.55 76.95 185.43 79.47c48.38,21.09 87.67,60.1 109.06,109.06l78.72 185.13 77.12 -184.41c21.25,-49.68 60.68,-89.56 109.94,-110.67l0 -0.3z"/>
   <path class="fil3" d="M7056.08 3969.54l0 0zm0 0l181.76 -78.42 -181.76 -75.93c-49.85,-21.11 -90.9,-61.14 -111.41,-111.71l-76.23 -181.62 -77.7 182.5c-20.53,49.41 -61.56,88.97 -109.94,109.94l-184.69 76.95 184.69 79.47c48.38,21.09 87.95,60.1 109.94,109.06l77.7 185.13 77.7 -184.41c20.51,-49.68 60.1,-89.56 109.94,-110.67l0 -0.3z"/>
   <path class="fil3" d="M4287.7 4215.23l1050.32 0 0 59.8c-80.63,6.02 -136.33,17.74 -167.11,35.78 -30.78,18.18 -55.7,48.22 -73.31,90.3 -8.79,21.83 -14.65,76.37 -14.65,162.56l0 482.3c-137.8,66.26 -281.45,116.08 -429.53,150.1 -130.31,29.18 -264.87,45.89 -404.3,49.7l0 0.44c-11.42,0.14 -23.74,0.72 -36.06,0.72 -11.58,0 -22.13,-0.14 -32.83,-0.44 -200.99,-0.88 -367.5,-30.64 -501.2,-90.3 -134.43,-59.52 -253.3,-138.24 -356.67,-235.56 -73,-9.53 -170.63,3.51 -275.57,-7.04 -164.93,-16.72 -199.39,-38.85 -235.44,-109.64 -36.06,-70.82 31.22,-173.42 31.22,-173.42 0,0 15.56,-76.54 -27.11,-91.63 -42.66,-15.55 -49.98,-54.24 -43.54,-83.42 6.6,-29.01 96.02,-41.64 96.02,-41.64 -104.09,-38.85 -115.67,-76.37 -118.87,-105.53 -4.11,-29.04 12.3,-34.46 36.92,-47.22 24.48,-12.46 24.48,-24.92 27.87,-56.87 4.09,-31.8 -20.53,-47.06 -20.53,-47.06 0,0 -38.57,-15.39 -59.08,-61.12 -20.53,-45.89 15.53,-66.7 15.53,-66.7 0,0 222.38,-188.97 233.81,-202.76l2.49 -2.77 1.63 -11.74c-1.63,-7.63 -7.35,-13.35 -7.35,-13.35 -99.22,-63.75 -77.09,-109.64 -77.09,-109.64 32.83,69.35 49.98,65.24 49.98,65.24 -22.13,-41.48 -19.65,-69.33 -19.65,-69.33 38.55,77.84 61.43,83.39 61.43,83.39 2.49,-98.95 26.22,-189.83 62.44,-271.62l0 -0.3c44.27,-100.72 106.57,-187.64 169.74,-258.3 -107.44,33.71 -233.82,135.59 -296.1,328.67 0,0 18.02,-342.3 307.54,-436.27 -109.94,-139.7 15.56,-304.03 120.64,-290.85 84.44,10.56 96.76,107.9 96.76,107.9 -11.58,-17.44 -23.9,-29.62 -36.94,-37.82 -59.08,-37.39 -136.91,9.39 -138.68,82.67 -0.72,49.57 36.94,88.11 78.86,115.66l2.35 -0.14c47.64,-39.73 85.32,-65.68 100.85,-76.07 101.02,-314.3 -88.53,-301.84 -88.53,-301.84 0,0 133.68,-107.46 247.74,165.35 8.21,18.48 13.93,39.15 18.02,61.73 230.44,-107.6 530.66,-156.12 904.62,-39.43 42.66,13.04 133.98,18.9 160.37,20.09 95.3,4.39 228.68,-98.81 206.71,-207.43 -51.31,-258.46 -410.46,-59.08 -451.52,-25.5l-0.86 -0.89c31.22,-38.71 260.34,-245.26 467.03,-129.73 162.72,91.9 117.27,543.54 -313.7,492.69 -282.06,-33.13 -486.25,-132.96 -736.48,11.14 178.86,-26.11 395.35,-67.59 698.08,228.68 0,0 -513.53,-202.29 -762.87,18.04 -249.35,220.31 -269.71,481.26 -269.71,715.07 0,223.4 23.74,418.81 73,587.25 49.1,168.28 127.82,291.57 236.14,370.87 96.02,69.63 206.71,108.31 333.79,116.69l5 -1.91 0.72 2.35c15.69,0.89 31.22,1.46 47.66,1.46 51.59,0 104.95,-5.86 159.93,-18.32 54.96,-11.58 110.67,-29.31 167.25,-52.19l0 -482.14c0,-93.23 -5.72,-153.77 -17.16,-181.34 -11.58,-26.97 -36.2,-52.03 -72.26,-73.89 -36.06,-22.27 -80.35,-33.27 -132.07,-33.27l-55.7 0 0 -60.24z"/>
   <path class="fil1" d="M4032.61 1575.39c-593.83,0 -1187.52,226.05 -1639.48,678.15 -438.01,437.85 -679.15,1020.26 -679.15,1639.76 0,619.35 241.14,1201.77 679.15,1639.78 437.87,438.01 1020.29,679.31 1639.48,679.31 619.35,0 1202.79,-241.3 1639.64,-679.31 438.31,-438.02 680.17,-1020.43 680.17,-1639.78 0,-619.5 -241.86,-1201.91 -680.17,-1639.92l0 0.17c-451.5,-452.1 -1045.21,-678.15 -1639.64,-678.15zm0 4682.3c-605.27,0 -1211.42,-230.44 -1672.31,-691.61 -446.96,-446.82 -693.08,-1040.95 -693.08,-1672.77 0,-631.96 246.11,-1225.94 693.08,-1672.75 922.64,-922.36 2422.14,-922.2 3345.66,0l0 0c922.06,922.36 922.06,2423.02 0,3345.52 -461.75,461.17 -1067.18,691.61 -1673.35,691.61z"/>
  </g>
 </g>
</svg>
